<svg width="200" height="200" viewBox="0 0 200 200" fill="none" xmlns="http://www.w3.org/2000/svg">
<path d="M68.9186 17.1111C75.0315 6.52273 86.3289 0 98.5551 0C124.929 0 141.39 28.5774 128.157 51.3913L88.6642 119.476C82.5566 130.006 71.3047 136.487 59.1321 136.487C32.8509 136.487 16.4249 108.037 29.565 85.2764L68.9186 17.1111Z" fill="url(#paint0_linear)"/>
<path d="M110.953 80.6238C117.065 70.0354 128.363 63.5127 140.589 63.5127C166.963 63.5127 183.424 92.0901 170.191 114.904L130.698 182.989C124.591 193.518 113.339 200 101.166 200C74.8848 200 58.4588 171.55 71.599 148.789L110.953 80.6238Z" fill="url(#paint1_linear)"/>
<path d="M41.5893 63.6826H199.661L157.227 136.149H0.338623L41.5893 63.6826Z" fill="url(#paint2_linear)"/>
<defs>
<linearGradient id="paint0_linear" x1="0" y1="68.2434" x2="157.966" y2="68.2434" gradientUnits="userSpaceOnUse">
<stop stop-color="#E65C00"/>
<stop offset="1" stop-color="#F9D423"/>
</linearGradient>
<linearGradient id="paint1_linear" x1="42.0339" y1="131.756" x2="200" y2="131.756" gradientUnits="userSpaceOnUse">
<stop stop-color="#E65C00"/>
<stop offset="1" stop-color="#F9D423"/>
</linearGradient>
<linearGradient id="paint2_linear" x1="48.5209" y1="91.2165" x2="206.085" y2="91.2165" gradientUnits="userSpaceOnUse">
<stop stop-color="#E65C00"/>
<stop offset="1" stop-color="#F9D423"/>
</linearGradient>
</defs>
</svg>
